<?xml version="1.0" encoding="utf-8"?>
<!-- Generator: Adobe Illustrator 26.3.1, SVG Export Plug-In . SVG Version: 6.00 Build 0)  -->
<svg version="1.1" id="Layer_1" xmlns="http://www.w3.org/2000/svg" xmlns:xlink="http://www.w3.org/1999/xlink" x="0px" y="0px"
	 viewBox="0 0 1280 1280" style="enable-background:new 0 0 1280 1280;" xml:space="preserve">
<style type="text/css">
	.st0{fill:#6AC4A3;}
	.st1{fill:#368A98;}
</style>
<g>
	<path id="_x36_AC4A3" class="st0" d="M1055.09,381.51l-32.33,207.45c-0.06,0.36-0.48,0.53-0.77,0.3l-59.86-46.92
		c-0.21-0.17-0.52-0.13-0.68,0.09L738.71,834.59c-0.17,0.22-0.5,0.25-0.71,0.06l-108.65-99.21c-0.23-0.21-0.58-0.15-0.74,0.11
		l-95.13,162.19h-71.45c-0.37,0-0.6-0.4-0.41-0.72l152.34-258.85c0.15-0.26,0.51-0.32,0.74-0.11l115.08,105.08
		c0.21,0.19,0.54,0.16,0.71-0.06l182.16-238.94c0.16-0.21,0.12-0.51-0.09-0.67l-57.6-45.15c-0.29-0.23-0.22-0.69,0.12-0.83
		l199.37-76.51C1054.79,380.85,1055.15,381.14,1055.09,381.51z"/>
	<path id="_x33_68A98" class="st1" d="M968.6,865.38c-19.23-19.18-45.48-29.66-72.64-29.66h-326.1l-36.39,62.03h363.37
		c10.57,0,20.52,4.12,27.99,11.59c7.44,7.43,11.55,17.31,11.59,27.82c0.09,21.87-18.24,39.76-40.1,39.76H333.86
		c-0.37,0-0.6-0.4-0.41-0.72l349.13-593.21c0.19-0.32-0.04-0.72-0.41-0.72H382.09c-10.57,0-20.51-4.12-27.99-11.6
		c-7.48-7.47-11.59-17.41-11.59-27.99c0-21.83,17.76-39.59,39.58-39.59h428.24c0.37,0,0.6,0.4,0.41,0.72L640.78,592.59
		c-0.12,0.2-0.08,0.45,0.09,0.6l46.09,42.08c0.23,0.21,0.58,0.15,0.74-0.11l231.52-393.38c0.19-0.32-0.04-0.72-0.41-0.72H382.99
		c-56.18,0-102.8,45.97-102.51,102.15c0.14,26.95,10.7,52.26,29.76,71.31c19.19,19.2,44.7,29.76,71.85,29.76h191.59
		c0.37,0,0.6,0.4,0.41,0.72L472.76,617.19c-10.93-22.68-27.01-43.01-47.38-59.51c-33.73-27.32-77.19-42.37-122.38-42.37h-29.77
		c-0.26,0-0.47,0.21-0.48,0.47l-0.75,29.76c-1.26,49.76,12.68,94.54,40.29,129.52c23.2,29.39,55.22,50.15,91.37,59.54
		l-178.69,303.63c-0.19,0.32,0.04,0.72,0.41,0.72h671.47c27.14,0,52.66-10.57,71.85-29.76c19.19-19.2,29.76-44.71,29.76-71.85
		C998.46,910.14,987.85,884.59,968.6,865.38z M391.29,663.07c-11.64-6.82-21.84-15.72-30.32-26.45
		c-12.21-15.46-20.42-34.18-24.35-55.2c18.39,4.57,35.42,12.88,49.72,24.46c22.02,17.83,36.19,42.38,39.91,69.11l0.16,1.19
		C413.88,673.79,402.07,669.39,391.29,663.07z"/>
</g>
</svg>
